# xmcd
# 
# Track frame offsets:
#     182
#     15667
#     34315
#     49932
#     65665
#     81270
#     100975
#     115637
#     130887
#     145557
#     162377
#     179137
#     194570
#     210895
#     224532
#     238657
#     254207
#     268797
#     286570
#     301757
#     329132
# 
# Disc length: 4795
# 
# Revision: 3
# Processed by: cddbd v1.5.2PL0 Copyright (c) Steve Scherf et al.
# Submitted via: fre:ac v1.0.31
# 
DISCID=4512b915
DTITLE=Various Artist - Bääärenstark!!! Frühjahr 2003 - CD2
DYEAR=2003
DGENRE=Schlager
TTITLE0=Wolfgang Petry - Co-Co (ho chi kaka ho)
TTITLE1=Schürzenjäger - Mein Bruder, mi Hermano
TTITLE2=Bernhard Brink - Du hast mich verhext
TTITLE3=Inka - Partytime
TTITLE4=Olaf Berger and Alexandra Klim - Ich denk immer noch an dich
TTITLE5=Udo Jürgens - Solang mich deine Liebe trägt
TTITLE6=Olaf Henning - Wieder mal verliebt
TTITLE7=Hänsel and Gretel - Eins-Zwei-Drei-Zauberei
TTITLE8=Bernd Stelter - Ein Bier im Keller
TTITLE9=Lollies - Das Leben is' fett
TTITLE10=Andrea Jürgens - Karneval
TTITLE11=Truck Stop - Wilder Reiter
TTITLE12=Ulli Schwinge - Dieser Zauber
TTITLE13=G.G. Anderson - Dafür leb ich (Ein Wahnsinn)
TTITLE14=René Meyer - Schöne Senorita
TTITLE15=Wolfgang Ziegler - Ich küss dir die Angst von deiner Haut
TTITLE16=Mona and Die Falschen 50er - Wenn der Abend kommt
TTITLE17=Helmut Frey - Doch wenn's noch Gefühle gibt
TTITLE18=Stefan Moll - Daniela
TTITLE19=Elfi Graf - Ein Mann wie du
TTITLE20=Data - Data
EXTD=
EXTT0=
EXTT1=
EXTT2=
EXTT3=
EXTT4=
EXTT5=
EXTT6=
EXTT7=
EXTT8=
EXTT9=
EXTT10=
EXTT11=
EXTT12=
EXTT13=
EXTT14=
EXTT15=
EXTT16=
EXTT17=
EXTT18=
EXTT19=
EXTT20=
PLAYORDER=
